<mxfile host="app.diagrams.net" modified="2021-09-12T05:43:16.030Z" agent="5.0 (Windows NT 10.0; Win64; x64) AppleWebKit/537.36 (KHTML, like Gecko) Chrome/90.0.4430.93 Safari/537.36" etag="KQqfwtrKaaBKeEG2rM96" version="15.1.4" type="github">
  <diagram id="51wJWrBeTxjH-G1PAdbu" name="Page-1">
    <mxGraphModel dx="1328" dy="746" grid="1" gridSize="10" guides="1" tooltips="1" connect="1" arrows="1" fold="1" page="1" pageScale="1" pageWidth="827" pageHeight="1169" math="0" shadow="0">
      <root>
        <mxCell id="0" />
        <mxCell id="1" parent="0" />
        <mxCell id="5T_nr094OwoaVHjd0FKp-1" value="&lt;font style=&quot;font-size: 14px&quot;&gt;Activity#&lt;span style=&quot;text-align: justify&quot;&gt;installSplashScreen&lt;/span&gt;&lt;/font&gt;" style="rounded=1;whiteSpace=wrap;html=1;fillColor=#f5f5f5;strokeColor=#666666;fontColor=#333333;" vertex="1" parent="1">
          <mxGeometry x="373.75" y="145" width="190" height="60" as="geometry" />
        </mxCell>
        <mxCell id="5T_nr094OwoaVHjd0FKp-2" value="SplashScreen#install" style="rounded=1;whiteSpace=wrap;html=1;fillColor=#dae8fc;strokeColor=#6c8ebf;" vertex="1" parent="1">
          <mxGeometry x="400" y="255" width="137.5" height="60" as="geometry" />
        </mxCell>
        <mxCell id="5T_nr094OwoaVHjd0FKp-3" value="Impl31#install" style="rounded=1;whiteSpace=wrap;html=1;fillColor=#dae8fc;strokeColor=#6c8ebf;" vertex="1" parent="1">
          <mxGeometry x="804.25" y="300" width="130" height="60" as="geometry" />
        </mxCell>
        <mxCell id="5T_nr094OwoaVHjd0FKp-4" value="Android 12?" style="rhombus;whiteSpace=wrap;html=1;fillColor=#f8cecc;strokeColor=#b85450;" vertex="1" parent="1">
          <mxGeometry x="610" y="190" width="110" height="80" as="geometry" />
        </mxCell>
        <mxCell id="5T_nr094OwoaVHjd0FKp-5" value="" style="endArrow=classic;html=1;exitX=0.5;exitY=1;exitDx=0;exitDy=0;" edge="1" parent="1" source="5T_nr094OwoaVHjd0FKp-1" target="5T_nr094OwoaVHjd0FKp-2">
          <mxGeometry width="50" height="50" relative="1" as="geometry">
            <mxPoint x="705" y="375" as="sourcePoint" />
            <mxPoint x="755" y="325" as="targetPoint" />
          </mxGeometry>
        </mxCell>
        <mxCell id="5T_nr094OwoaVHjd0FKp-7" value="Y" style="text;html=1;strokeColor=none;fillColor=none;align=center;verticalAlign=middle;whiteSpace=wrap;rounded=0;" vertex="1" parent="1">
          <mxGeometry x="720" y="300" width="40" height="20" as="geometry" />
        </mxCell>
        <mxCell id="5T_nr094OwoaVHjd0FKp-8" value="" style="endArrow=classic;html=1;entryX=0;entryY=0.5;entryDx=0;entryDy=0;exitX=0.5;exitY=0;exitDx=0;exitDy=0;" edge="1" parent="1" target="5T_nr094OwoaVHjd0FKp-10" source="5T_nr094OwoaVHjd0FKp-4">
          <mxGeometry width="50" height="50" relative="1" as="geometry">
            <mxPoint x="1067.5" y="180" as="sourcePoint" />
            <mxPoint x="1097.5" y="179.94" as="targetPoint" />
            <Array as="points">
              <mxPoint x="665" y="120" />
            </Array>
          </mxGeometry>
        </mxCell>
        <mxCell id="5T_nr094OwoaVHjd0FKp-9" value="N" style="text;html=1;strokeColor=none;fillColor=none;align=center;verticalAlign=middle;whiteSpace=wrap;rounded=0;" vertex="1" parent="1">
          <mxGeometry x="720" y="90" width="40" height="20" as="geometry" />
        </mxCell>
        <mxCell id="5T_nr094OwoaVHjd0FKp-10" value="Impl#install" style="rounded=1;whiteSpace=wrap;html=1;fillColor=#dae8fc;strokeColor=#6c8ebf;" vertex="1" parent="1">
          <mxGeometry x="804.25" y="90" width="130" height="60" as="geometry" />
        </mxCell>
        <mxCell id="5T_nr094OwoaVHjd0FKp-11" value="setPostSplashScreenTheme" style="rounded=1;whiteSpace=wrap;html=1;fillColor=#dae8fc;strokeColor=#6c8ebf;" vertex="1" parent="1">
          <mxGeometry x="1020" y="200" width="185" height="60" as="geometry" />
        </mxCell>
        <mxCell id="5T_nr094OwoaVHjd0FKp-12" value="Activity#setTheme" style="rounded=1;whiteSpace=wrap;html=1;fillColor=#f5f5f5;strokeColor=#666666;fontColor=#333333;" vertex="1" parent="1">
          <mxGeometry x="1258" y="200" width="132" height="60" as="geometry" />
        </mxCell>
        <mxCell id="5T_nr094OwoaVHjd0FKp-13" value="Resolve Background &amp;amp; Icon" style="rounded=1;whiteSpace=wrap;html=1;fillColor=#f5f5f5;strokeColor=#666666;fontColor=#333333;" vertex="1" parent="1">
          <mxGeometry x="780" y="200" width="178.5" height="60" as="geometry" />
        </mxCell>
        <mxCell id="5T_nr094OwoaVHjd0FKp-14" value="" style="endArrow=classic;html=1;exitX=0.5;exitY=1;exitDx=0;exitDy=0;entryX=0;entryY=0.5;entryDx=0;entryDy=0;" edge="1" parent="1" source="5T_nr094OwoaVHjd0FKp-4" target="5T_nr094OwoaVHjd0FKp-3">
          <mxGeometry width="50" height="50" relative="1" as="geometry">
            <mxPoint x="1267.5" y="155" as="sourcePoint" />
            <mxPoint x="844.5" y="228" as="targetPoint" />
            <Array as="points">
              <mxPoint x="665" y="330" />
            </Array>
          </mxGeometry>
        </mxCell>
        <mxCell id="5T_nr094OwoaVHjd0FKp-15" value="" style="endArrow=classic;html=1;exitX=0.5;exitY=1;exitDx=0;exitDy=0;entryX=0.5;entryY=0;entryDx=0;entryDy=0;" edge="1" parent="1" source="5T_nr094OwoaVHjd0FKp-10" target="5T_nr094OwoaVHjd0FKp-13">
          <mxGeometry width="50" height="50" relative="1" as="geometry">
            <mxPoint x="958.5" y="119.5" as="sourcePoint" />
            <mxPoint x="1008" y="119.5" as="targetPoint" />
          </mxGeometry>
        </mxCell>
        <mxCell id="5T_nr094OwoaVHjd0FKp-18" value="" style="endArrow=classic;html=1;exitX=1;exitY=0.5;exitDx=0;exitDy=0;" edge="1" parent="1" source="5T_nr094OwoaVHjd0FKp-13" target="5T_nr094OwoaVHjd0FKp-11">
          <mxGeometry width="50" height="50" relative="1" as="geometry">
            <mxPoint x="1342.08" y="250" as="sourcePoint" />
            <mxPoint x="1342.08" y="300" as="targetPoint" />
          </mxGeometry>
        </mxCell>
        <mxCell id="5T_nr094OwoaVHjd0FKp-20" value="" style="endArrow=classic;html=1;exitX=1;exitY=0.5;exitDx=0;exitDy=0;entryX=0;entryY=0.5;entryDx=0;entryDy=0;" edge="1" parent="1" source="5T_nr094OwoaVHjd0FKp-2" target="5T_nr094OwoaVHjd0FKp-4">
          <mxGeometry width="50" height="50" relative="1" as="geometry">
            <mxPoint x="570" y="300" as="sourcePoint" />
            <mxPoint x="570" y="350" as="targetPoint" />
            <Array as="points">
              <mxPoint x="570" y="285" />
              <mxPoint x="570" y="230" />
            </Array>
          </mxGeometry>
        </mxCell>
        <mxCell id="5T_nr094OwoaVHjd0FKp-21" value="" style="endArrow=classic;html=1;" edge="1" parent="1" target="5T_nr094OwoaVHjd0FKp-12">
          <mxGeometry width="50" height="50" relative="1" as="geometry">
            <mxPoint x="1203" y="230" as="sourcePoint" />
            <mxPoint x="1274.5" y="229.5" as="targetPoint" />
          </mxGeometry>
        </mxCell>
        <mxCell id="5T_nr094OwoaVHjd0FKp-22" value="" style="endArrow=classic;html=1;exitX=1;exitY=0.5;exitDx=0;exitDy=0;entryX=0.5;entryY=1;entryDx=0;entryDy=0;" edge="1" parent="1" source="5T_nr094OwoaVHjd0FKp-3" target="5T_nr094OwoaVHjd0FKp-11">
          <mxGeometry width="50" height="50" relative="1" as="geometry">
            <mxPoint x="1030" y="300" as="sourcePoint" />
            <mxPoint x="1193.5" y="360" as="targetPoint" />
            <Array as="points">
              <mxPoint x="1113" y="330" />
            </Array>
          </mxGeometry>
        </mxCell>
      </root>
    </mxGraphModel>
  </diagram>
</mxfile>
